<?xml version="1.0" encoding="utf-8"?>
<!-- Generator: Adobe Illustrator 21.1.0, SVG Export Plug-In . SVG Version: 6.00 Build 0)  -->
<svg version="1.1" id="Layer_1" xmlns="http://www.w3.org/2000/svg" xmlns:xlink="http://www.w3.org/1999/xlink" x="0px" y="0px"
	 viewBox="0 0 500 500" style="enable-background:new 0 0 500 500;" xml:space="preserve">
<style type="text/css">
	.st0{fill:#FFFFFF;}
</style>
<g>
	<g>
		<path class="st0" d="M-15.2,429c-69,0-138,0-207,0c0-44.8,0-89.5,0-134.3c69,0,138,0,207,0C-15.2,339.5-15.2,384.3-15.2,429z
			 M-100.9,346.5c-0.7,0.1-1.2,0.1-1.7,0.3c-19.9,6.6-39.8,13.1-59.7,19.8c-1.2,0.4-2.5,1.4-3,2.5c-3.1,7.2-2.6,14.4,0.4,21.4
			c1.3,3,3.4,4.2,6.9,3.4c22.3-4.9,44.6-9.6,66.9-14.5c0.3-0.1,0.5-0.4,0.8-0.7C-96.6,369-100.8,358.6-100.9,346.5z M-34.3,392.4
			c-2.5-2.1-5.3-3.8-7.2-6.2c-2.1-2.7-3.8-5.9-5.1-9.1c-7.3-17.4-8.6-35.5-6.3-54c1.1-8.6,3.4-16.9,8.4-24.3
			c-12.6,5.3-23.7,12.6-25.8,27.2c-3.2,21.8-0.8,42.8,11,62C-54.4,396.2-41.5,398.2-34.3,392.4z M-195.1,380.2
			c1.2,8.9,2.1,17.8,5.3,26.3c0.4,0,0.9,0.1,1.3,0.1c0.7-3,1.5-5.9,2.4-9.6c-3.9,1.3-4.9-0.8-4.9-3c0-2.8,0.3-5.8,1.4-8.3
			c1.9-4.7-0.1-11.5-4.7-14.3c-0.2,0.5-0.5,1.1-0.7,1.6c-0.4-0.1-0.8-0.2-1.2-0.4c1.1-4.5,1.9-9.2,3.6-13.5c1.2-3.1,4.2-3.1,6.3-0.5
			c1.4,1.7,2.6,3.8,3.2,5.8c1.4,4.4,2.4,8.9,3.7,13.3c0.3,0.9,1.1,1.7,1.7,2.5c0.5-1,1.4-2,1.4-2.9c0-2.1-0.5-4.2-0.9-6.3
			c-1.7-8.6-3.8-17.1-8.9-24.4c-1.1-1.5-3.1-2.9-4.9-3.2c-2.5-0.4-4.5,1.3-5.4,3.8c-0.9,2.6-1.9,5.2-2.5,7.8
			c-2.7,11.4-2,22.9-0.5,34.3c1.3,9.9,3.3,19.7,8.6,28.5c1.6,2.7,3.3,6.4,6.8,5.3c2.4-0.8,4-4.3,5.9-6.6c0.2-0.3,0.3-0.7,0.3-1.1
			c0.9-6.6,1.9-13.3,2.8-20c0.1-0.5-0.3-1.1-0.4-1.6c-0.3,0-0.6-0.1-0.9-0.1c-0.4,1-0.9,2-1,3c-0.7,4.5-1.1,9.2-2.1,13.6
			c-0.4,1.7-2.2,4.4-3.3,4.4c-1.9-0.1-3.9-1.8-5.5-3.2c-1-0.8-1.4-2.3-1.9-3.6C-193.9,399-195.3,389.7-195.1,380.2z M-199.2,345.8
			c-4.2,0.2-7.8,1.5-9.7,5c-2.7,4.8-6.1,9.7-7.1,15c-2.9,14.7-0.2,29,5.1,42.9c2.3,6,4.5,12.3,10.2,16.2c1.4,1,3.6,1.5,5.4,1.3
			c2.9-0.3,5.7-1.3,8.2-1.9c-1.6-2.1-3.7-3.9-4.7-6.2c-2.4-5.3-4.9-10.7-6.2-16.3c-4-17.4-5.8-34.9-0.5-52.5c0.1-0.3-0.9-0.9-1-1.4
			C-199.7,347.2-199.4,346.5-199.2,345.8z M-43.2,306.6c2.9,3.2,6.1,5.5,7.6,8.6c2.8,5.9,5.5,12.2,6.7,18.5c1.8,9.9,2.4,20,3.4,30
			c-0.8-4.3,2.9-1.4,4.7-2.8c0.1-0.8,0.4-2,0.4-3c-0.7-10.4-1-20.9-2.4-31.3c-1-7.4-3.2-14.7-7.8-20.8
			C-35.7,299.2-40.3,299.8-43.2,306.6z M-18.7,357.9c2.4-13.3,1.2-26.1-2.8-38.5c-2-6.4-5.2-12.7-9.1-18.2c-4.2-5.7-10.2-5.1-13.7,1
			c-2.7,4.6-4.8,9.6-6,14.8c-3.8,16.6-3.3,33.3,1.6,49.6c2.1,7,6.1,13.6,9.7,20.1c0.9,1.6,4,3,5.8,2.8c5-0.6,9.3-5.7,10.1-11.1
			c-1,1.5-1.8,2.9-2.8,4.2c-3.3,4.3-6.9,5-10.8,1.3c-2.7-2.5-5-5.7-6.5-9c-7.7-17.8-8.9-36.5-6.1-55.5c0.8-5.4,2.8-10.9,5.5-15.7
			c3.3-5.9,9.5-6,13.3-0.3c3.1,4.7,5.8,10,7.4,15.4C-19.1,331.4-17.7,344.4-18.7,357.9z M-179.5,382.2c-0.5-2.2-0.9-4.1-1.4-6
			c-1.4-4.6-2.6-9.4-4.4-13.8c-0.7-1.8-3-2.9-4.5-4.3c-1.2,1.8-2.5,3.5-3.4,5.5c-0.3,0.6,0.2,1.7,0.7,2.5c1.6,2.7,3.7,5.2,5,8.1
			c1.2,2.4,1.6,5.2,2.3,7.8c1.1,0.1,2.1,0.3,3.4,0.4c-1.8,4-4.3,7.7-2.2,12.4c2.6-0.8,5.1-1.6,7.1-2.2c0.3-3.9,0.6-7.3,0.9-10.8
			C-177.1,381.8-178,382-179.5,382.2z M-48.1,332c-1.5,10.7,1.5,31.9,5.3,37.4C-38.4,360-41.2,339-48.1,332z M-51.3,396.6
			c-5.4-2.2-8.6-6.1-11.1-10.6c-7.4-13.3-10.6-27.6-10.5-42.7c0.1-6.9,0.6-13.7,1-20.6c-1.5,5.8-2.4,11.6-2.6,17.5
			c-0.6,17.7,2.6,34.5,12.2,49.7C-59.9,393.6-56.9,396.6-51.3,396.6z M-97.5,344.8c-0.5,0.2-1,0.4-1.4,0.6c-0.1,1.8-0.8,3.7-0.3,5.3
			c2.1,7.4,4.3,14.7,7,21.9c0.9,2.2,4.5,5.7,5.1,5.4c3.3-1.8,1.5-5.1,1.3-7.9c-4.4,0.5-6.2-0.6-8.2-4.6c-2.1-4.5-1.3-9.6,2.5-13.1
			C-93.5,349.8-95.5,347.3-97.5,344.8z M-36.3,381.6c0.2,0.3,0.4,0.6,0.5,0.9c1-0.5,2.4-0.7,2.8-1.5c1.3-2.2,2.7-4.5,3.4-7
			c4-14.6,2.7-29.2-1.3-43.6c-1.7-6.1-4.8-11.9-7.8-17.6c-0.9-1.8-3.4-2.7-5.2-4c-0.3,0.4-0.6,0.7-0.9,1.1
			c7.5,4.3,10,11.7,12.4,19.2c3.3,10.5,4.3,21.3,3.7,32.2C-29.2,368.7-30.4,376-36.3,381.6z M-178,395c-4.6,0-6.3,1.4-6.4,5.3
			c-0.1,2.9-1,5.9-2.2,8.6c-1.1,2.7,0.1,4,2.1,4.5c0.9,0.2,3.1-1.1,3.3-2.1C-179.9,406.1-179.1,400.7-178,395z M-208.5,418.1
			c-8.7-20.8-14.5-41.6-5-64.1C-225.8,369.4-217.9,404.6-208.5,418.1z M-84.1,351.8c-1.1,0.9-3.5,1.8-3.9,3.3
			c-1.2,4.4,0.2,8.6,3.5,11.5c0.9,0.9,3.7-0.3,5-0.4C-81.1,361.3-82.5,356.9-84.1,351.8z M-76.2,348.4c-2.2,1.8-4.6,2.8-5,4.3
			c-0.9,4.2,0.5,8.1,3.4,11.3c0.5,0.5,1.7,0.8,2.5,0.6c0.4-0.1,0.9-1.3,0.8-2C-74.9,358.4-75.5,354.1-76.2,348.4z M-90.8,354.2
			c-0.8,1-2.2,1.9-2.5,3.1c-1.1,4.1-0.2,8,3,10.9c0.8,0.7,2.7,0.1,3.3,0.1C-88.2,363.5-89.4,359.2-90.8,354.2z M-174.7,391.8
			c1.6-0.5,2.9-0.9,3.4-1c0.5-4.1,0.8-7.5,1.2-10.8C-174.3,381-176.2,385.5-174.7,391.8z M-185.3,384.2c-2.9,0.5-5.4,5.4-4.5,9.3
			c0.5,2.3,1.6,2.9,3.2,1.7C-186.1,391.4-185.7,387.9-185.3,384.2z M-26.9,367c-0.4,2.1-0.7,4.2-1.1,6.2c1.7-1.4,3.8,1.9,4.8-0.5
			c0.7-1.7,0.9-3.7,1.4-5.6C-23.8,367-25.3,367-26.9,367z M-31.9,382.1c3.5,1.4,5-0.3,6-3.3C-29.9,376.5-30.7,379.4-31.9,382.1z"/>
		<path d="M-100.9,346.5c0.2,12.1,4.3,22.5,10.7,32.3c-0.3,0.3-0.5,0.6-0.8,0.7c-22.3,4.8-44.6,9.6-66.9,14.5
			c-3.5,0.8-5.6-0.5-6.9-3.4c-3-7.1-3.5-14.3-0.4-21.4c0.5-1.1,1.8-2.1,3-2.5c19.9-6.7,39.8-13.2,59.7-19.8
			C-102.2,346.6-101.7,346.6-100.9,346.5z M-124.3,375.5c0.7,0.1,1.7,0.5,1.9,0.2c3.3-4.8,6.4-9.6,9.6-14.4
			c-0.2-0.2-0.5-0.3-0.7-0.5c-1,0.8-2,1.6-3,2.4c-1.1-0.2-2.3-0.7-3.3-0.4c-11.6,3.2-23.2,6.7-34.9,9.8c-3.7,1-4.3,2.7-3.4,5.8
			c1.1,4,3.5,5.8,6.7,4.9c7.6-1.9,15.2-3.8,22.8-5.8C-127.1,377.2-125.8,376.2-124.3,375.5z M-119.4,375.3
			c5.8-1.5,10.3-2.7,14.8-3.9c-1.8-3.8-3.4-7.2-5.2-11C-113,365.4-115.9,369.9-119.4,375.3z"/>
		<path d="M-34.3,392.4c-7.1,5.8-20,3.8-25-4.3c-11.8-19.2-14.3-40.3-11-62c2.2-14.6,13.2-21.8,25.8-27.2c-5,7.4-7.4,15.7-8.4,24.3
			c-2.3,18.5-1,36.6,6.3,54c1.3,3.2,3,6.4,5.1,9.1C-39.6,388.6-36.8,390.3-34.3,392.4z M-53.2,369.5c-3.9,0.9-7.4,1.7-11.2,2.6
			c1.4,3.4,2.6,6.2,3.8,9.1c3.1-1,5.8-1.8,8.5-2.6c0.5-0.1,0.9-0.5,1.5-0.8C-51.4,375.1-52.2,372.6-53.2,369.5z M-58.2,335.5
			c-10.9,2.7-12.6,4.9-9.3,11.8C-57.4,345.4-56.5,344.2-58.2,335.5z M-56.7,353.5c-3.8,1-7.3,1.9-10.9,2.8c0.6,3,1.2,5.6,1.9,8.6
			c3.9-1,7.3-1.9,10.7-2.8C-55.6,359.1-56.1,356.6-56.7,353.5z M-67.7,330.9c10.1-2.4,10.5-2.9,10.6-12.4
			C-68.3,321.8-67.3,319.8-67.7,330.9z M-55.4,388.2c4.3,5.8,9.3,6.8,13.8,3.1C-47.2,383.7-44,384.3-55.4,388.2z M-54,308.7
			c-0.3-0.5-0.7-0.9-1-1.4c-2.1,1.6-4.3,3.2-6.4,4.9c0.3,0.4,0.5,0.7,0.8,1.1C-58.4,311.8-56.2,310.2-54,308.7z"/>
		<path d="M-195.1,380.2c-0.2,9.5,1.2,18.8,4.7,27.8c0.5,1.3,1,2.8,1.9,3.6c1.6,1.4,3.6,3,5.5,3.2c1,0.1,2.9-2.7,3.3-4.4
			c1-4.5,1.4-9.1,2.1-13.6c0.2-1,0.7-2,1-3c0.3,0,0.6,0.1,0.9,0.1c0.2,0.5,0.5,1.1,0.4,1.6c-0.9,6.7-1.8,13.3-2.8,20
			c-0.1,0.4-0.1,0.8-0.3,1.1c-1.9,2.3-3.4,5.8-5.9,6.6c-3.4,1.2-5.2-2.6-6.8-5.3c-5.2-8.8-7.3-18.6-8.6-28.5
			c-1.5-11.4-2.2-22.9,0.5-34.3c0.6-2.6,1.6-5.2,2.5-7.8c0.9-2.5,2.9-4.2,5.4-3.8c1.8,0.3,3.8,1.7,4.9,3.2
			c5.1,7.3,7.2,15.8,8.9,24.4c0.4,2.1,0.8,4.2,0.9,6.3c0,1-0.9,2-1.4,2.9c-0.6-0.8-1.4-1.6-1.7-2.5c-1.3-4.4-2.3-8.9-3.7-13.3
			c-0.7-2.1-1.9-4.1-3.2-5.8c-2.1-2.6-5.1-2.5-6.3,0.5c-1.7,4.3-2.4,9-3.6,13.5c0.4,0.1,0.8,0.2,1.2,0.4c0.2-0.5,0.5-1.1,0.7-1.6
			c4.6,2.8,6.6,9.6,4.7,14.3c-1,2.6-1.4,5.5-1.4,8.3c0,2.2,1,4.3,4.9,3c-0.9,3.7-1.6,6.6-2.4,9.6c-0.4,0-0.9-0.1-1.3-0.1
			C-193,398-193.9,389-195.1,380.2z"/>
		<path d="M-199.2,345.8c-0.2,0.7-0.5,1.4-0.4,2c0.1,0.5,1.1,1.1,1,1.4c-5.3,17.6-3.5,35.1,0.5,52.5c1.3,5.6,3.8,11,6.2,16.3
			c1,2.3,3.1,4.1,4.7,6.2c-2.5,0.6-5.3,1.6-8.2,1.9c-1.8,0.2-3.9-0.3-5.4-1.3c-5.6-3.9-7.8-10.2-10.2-16.2
			c-5.3-13.8-8-28.2-5.1-42.9c1-5.3,4.4-10.1,7.1-15C-207,347.2-203.4,346-199.2,345.8z M-214.5,371.7c0,3.6,0,6.7,0,10.1
			c3-0.6,5.8-1.2,8.8-1.9c-0.2-3.3-0.5-6.3-0.7-9.4C-209.4,371-211.8,371.3-214.5,371.7z M-205.5,387.5c-3,0.8-5.5,1.4-8.3,2.2
			c0.6,3.3,1.2,6.2,1.8,9.5c2.9-0.7,5.4-1.3,8-1.9C-204.4,393.9-204.9,391-205.5,387.5z M-207,413.9c2.3-0.6,4.4-1.1,6.9-1.7
			c-1.1-2.7-2.1-5.1-3.1-7.7c-2.4,0.7-4.4,1.3-6.5,2c0.4,1.2,0.6,2,0.9,2.8C-208.3,410.8-207.6,412.3-207,413.9z M-204.6,354.9
			c-6.8,0.9-7.8,1.9-8,8.4C-205.7,362.2-205.7,362.2-204.6,354.9z M-201.3,420.8c1.8,4.4,4.6,3.9,7.9,2.5c-1.1-1.5-2.1-2.7-3-4
			C-198.1,419.9-199.6,420.3-201.3,420.8z M-202.9,362.9c-0.1,0-0.2,0-0.3,0.1c0,6.8,0,13.6,0,20.4c0.1,0,0.2,0,0.3,0
			C-202.9,376.5-202.9,369.7-202.9,362.9z"/>
		<path d="M-43.2,306.6c3-6.8,7.6-7.4,12.5-0.8c4.6,6.2,6.8,13.5,7.8,20.8c1.4,10.3,1.7,20.8,2.4,31.3c0.1,1.1-0.2,2.2-0.4,3
			c-1.8,1.4-5.5-1.5-4.7,2.8c-1.1-10-1.6-20.1-3.4-30c-1.2-6.4-3.9-12.6-6.7-18.5C-37.1,312.1-40.4,309.8-43.2,306.6z M-35.5,312.3
			c1.4,2.4,2.6,4.4,3.8,6.5c1.5-0.8,2.7-1.4,4-2.1c-1-2.3-1.9-4.3-2.8-6.5C-32.3,310.9-33.8,311.5-35.5,312.3z M-29.2,325.4
			c0.6,1.9,1,3.4,1.6,5.1c1.6-0.7,2.7-1.2,3.9-1.7c-0.4-1.6-0.6-2.9-1-4.5C-26.2,324.7-27.5,325-29.2,325.4z M-25.9,342.5
			c1.4-0.4,2.6-0.7,3.9-1c-0.3-1.7-0.5-3.1-0.7-4.7c-1.5,0.5-2.6,0.9-3.9,1.3C-26.3,339.6-26.1,340.9-25.9,342.5z M-22.1,349.8
			c-3.4-0.2-3.2,2-2.8,3.8c0.1,0.6,1.5,1,2.8,1.7C-22.1,352.9-22.1,351.4-22.1,349.8z"/>
		<path d="M-18.7,357.9c1-13.5-0.4-26.5-4.3-39.1c-1.6-5.4-4.3-10.7-7.4-15.4c-3.8-5.7-10-5.6-13.3,0.3c-2.7,4.8-4.7,10.3-5.5,15.7
			c-2.8,18.9-1.7,37.7,6.1,55.5c1.4,3.3,3.8,6.5,6.5,9c3.9,3.7,7.6,2.9,10.8-1.3c1-1.3,1.8-2.7,2.8-4.2c-0.8,5.4-5.1,10.6-10.1,11.1
			c-1.9,0.2-5-1.2-5.8-2.8c-3.6-6.5-7.6-13-9.7-20.1c-4.8-16.3-5.4-33-1.6-49.6c1.2-5.1,3.4-10.2,6-14.8c3.6-6.1,9.6-6.8,13.7-1
			c3.9,5.4,7.1,11.8,9.1,18.2C-17.5,331.7-16.3,344.6-18.7,357.9z"/>
		<path d="M-179.5,382.2c1.4-0.2,2.4-0.4,3.5-0.6c-0.3,3.5-0.6,6.9-0.9,10.8c-2,0.6-4.5,1.4-7.1,2.2c-2.1-4.7,0.3-8.4,2.2-12.4
			c-1.3-0.2-2.3-0.3-3.4-0.4c-0.7-2.6-1.1-5.4-2.3-7.8c-1.3-2.8-3.4-5.3-5-8.1c-0.4-0.7-1-1.9-0.7-2.5c1-1.9,2.3-3.6,3.4-5.5
			c1.6,1.4,3.8,2.6,4.5,4.3c1.8,4.4,3.1,9.2,4.4,13.8C-180.4,378.1-180,380-179.5,382.2z"/>
		<path d="M-48.1,332c6.9,7,9.7,28,5.3,37.4C-46.6,363.9-49.6,342.7-48.1,332z"/>
		<path d="M-51.3,396.6c-5.6,0.1-8.7-2.9-11.1-6.7c-9.6-15.2-12.7-32.1-12.2-49.7c0.2-5.9,1.1-11.8,2.6-17.5
			c-0.3,6.9-0.9,13.7-1,20.6c-0.1,15.1,3.1,29.5,10.5,42.7C-59.9,390.4-56.7,394.4-51.3,396.6z"/>
		<path d="M-97.5,344.8c2,2.5,4,5,5.9,7.4c-3.8,3.5-4.6,8.6-2.5,13.1c1.9,4,3.8,5.1,8.2,4.6c0.2,2.8,2,6.1-1.3,7.9
			c-0.6,0.3-4.2-3.2-5.1-5.4c-2.7-7.1-4.9-14.5-7-21.9c-0.5-1.6,0.2-3.5,0.3-5.3C-98.5,345.2-98,345-97.5,344.8z"/>
		<path d="M-36.3,381.6c5.9-5.6,7.2-12.9,7.6-20.4c0.6-10.9-0.4-21.7-3.7-32.2c-2.3-7.5-4.8-14.9-12.4-19.2c0.3-0.4,0.6-0.7,0.9-1.1
			c1.8,1.3,4.3,2.2,5.2,4c3,5.7,6.1,11.5,7.8,17.6c4,14.3,5.3,28.9,1.3,43.6c-0.7,2.5-2,4.8-3.4,7c-0.5,0.8-1.9,1-2.8,1.5
			C-36,382.2-36.2,381.9-36.3,381.6z"/>
		<path d="M-178,395c-1.1,5.7-1.9,11.1-3.2,16.3c-0.2,1-2.4,2.3-3.3,2.1c-2-0.5-3.2-1.9-2.1-4.5c1.1-2.7,2.1-5.7,2.2-8.6
			C-184.3,396.4-182.6,395-178,395z"/>
		<path d="M-208.5,418.1c-9.4-13.5-17.3-48.7-5-64.1C-223,376.4-217.1,397.3-208.5,418.1z"/>
		<path d="M-84.1,351.8c1.6,5.1,3,9.4,4.6,14.4c-1.3,0.1-4,1.3-5,0.4c-3.3-3-4.7-7.2-3.5-11.5C-87.5,353.6-85.2,352.7-84.1,351.8z"
			/>
		<path d="M-76.2,348.4c0.7,5.7,1.3,10,1.8,14.3c0.1,0.7-0.4,1.9-0.8,2c-0.8,0.1-2-0.1-2.5-0.6c-3-3.2-4.4-7.1-3.4-11.3
			C-80.8,351.2-78.4,350.2-76.2,348.4z"/>
		<path d="M-90.8,354.2c1.4,5,2.6,9.3,3.9,14c-0.7,0-2.6,0.6-3.3-0.1c-3.2-2.9-4-6.8-3-10.9C-92.9,356.1-91.6,355.2-90.8,354.2z"/>
		<path d="M-174.7,391.8c-1.6-6.3,0.4-10.8,4.6-11.8c-0.4,3.3-0.8,6.7-1.2,10.8C-171.8,390.9-173.1,391.3-174.7,391.8z"/>
		<path d="M-185.3,384.2c-0.4,3.7-0.9,7.2-1.3,11c-1.6,1.1-2.7,0.6-3.2-1.7C-190.6,389.6-188.2,384.7-185.3,384.2z"/>
		<path d="M-26.9,367c1.6,0,3.1,0,5.1,0c-0.5,2-0.7,3.9-1.4,5.6c-1,2.4-3.1-0.8-4.8,0.5C-27.6,371.1-27.3,369.1-26.9,367z"/>
		<path d="M-31.9,382.1c1.2-2.7,2-5.6,6-3.3C-26.8,381.7-28.4,383.4-31.9,382.1z"/>
		<path class="st0" d="M-124.3,375.5c-1.4,0.7-2.8,1.7-4.3,2c-7.6,2-15.2,3.9-22.8,5.8c-3.3,0.8-5.6-0.9-6.7-4.9
			c-0.9-3.1-0.3-4.9,3.4-5.8c11.7-3,23.3-6.6,34.9-9.8c1-0.3,2.2,0.3,3.3,0.4C-119.2,367.3-121.7,371.4-124.3,375.5z"/>
		<path class="st0" d="M-119.4,375.3c3.5-5.4,6.5-10,9.6-14.9c1.8,3.8,3.4,7.1,5.2,11C-109.1,372.6-113.7,373.8-119.4,375.3z"/>
		<path class="st0" d="M-124.3,375.5c2.6-4.1,5.2-8.2,7.8-12.3c1-0.8,2-1.6,3-2.4c0.2,0.2,0.5,0.3,0.7,0.5
			c-3.2,4.8-6.3,9.7-9.6,14.4C-122.6,376-123.7,375.6-124.3,375.5z"/>
		<path class="st0" d="M-53.2,369.5c1,3.1,1.8,5.6,2.6,8.2c-0.6,0.4-1,0.7-1.5,0.8c-2.7,0.9-5.4,1.7-8.5,2.6
			c-1.2-2.9-2.4-5.7-3.8-9.1C-60.6,371.2-57.1,370.4-53.2,369.5z"/>
		<path class="st0" d="M-58.2,335.5c1.8,8.7,0.9,9.8-9.3,11.8C-70.8,340.4-69.1,338.2-58.2,335.5z"/>
		<path class="st0" d="M-56.7,353.5c0.6,3.1,1.1,5.6,1.7,8.7c-3.5,0.9-6.9,1.8-10.7,2.8c-0.6-3-1.2-5.6-1.9-8.6
			C-63.9,355.4-60.5,354.5-56.7,353.5z"/>
		<path class="st0" d="M-67.7,330.9c0.4-11.1-0.7-9.1,10.6-12.4C-57.1,328-57.6,328.5-67.7,330.9z"/>
		<path class="st0" d="M-55.4,388.2c11.4-3.9,8.1-4.6,13.8,3.1C-46.1,395-51.1,394-55.4,388.2z"/>
		<path class="st0" d="M-54,308.7c-2.2,1.5-4.4,3.1-6.6,4.6c-0.3-0.4-0.5-0.7-0.8-1.1c2.1-1.6,4.3-3.2,6.4-4.9
			C-54.7,307.8-54.4,308.3-54,308.7z"/>
		<path class="st0" d="M-214.5,371.7c2.7-0.4,5.1-0.7,8.2-1.1c0.2,3.2,0.4,6.2,0.7,9.4c-3.1,0.6-5.8,1.2-8.8,1.9
			C-214.5,378.4-214.5,375.2-214.5,371.7z"/>
		<path class="st0" d="M-205.5,387.5c0.6,3.5,1.1,6.4,1.6,9.8c-2.6,0.6-5.1,1.2-8,1.9c-0.6-3.3-1.2-6.2-1.8-9.5
			C-211,389-208.5,388.3-205.5,387.5z"/>
		<path class="st0" d="M-207,413.9c-0.7-1.7-1.3-3.1-1.9-4.6c-0.3-0.8-0.5-1.6-0.9-2.8c2.1-0.6,4.1-1.2,6.5-2c1,2.6,2,4.9,3.1,7.7
			C-202.5,412.8-204.6,413.4-207,413.9z"/>
		<path class="st0" d="M-204.6,354.9c-1.1,7.3-1.1,7.3-8,8.4C-212.4,356.8-211.4,355.8-204.6,354.9z"/>
		<path class="st0" d="M-201.3,420.8c1.7-0.5,3.2-1,4.9-1.5c1,1.3,1.9,2.5,3,4C-196.8,424.7-199.5,425.2-201.3,420.8z"/>
		<path class="st0" d="M-202.9,362.9c0,6.8,0,13.6,0,20.5c-0.1,0-0.2,0-0.3,0c0-6.8,0-13.6,0-20.4
			C-203.1,362.9-203,362.9-202.9,362.9z"/>
		<path class="st0" d="M-35.5,312.3c1.8-0.8,3.2-1.4,5-2.1c1,2.2,1.8,4.2,2.8,6.5c-1.3,0.7-2.4,1.3-4,2.1
			C-32.9,316.7-34.1,314.7-35.5,312.3z"/>
		<path class="st0" d="M-29.2,325.4c1.8-0.4,3-0.7,4.5-1.1c0.3,1.6,0.6,2.9,1,4.5c-1.2,0.5-2.4,1-3.9,1.7
			C-28.2,328.8-28.6,327.4-29.2,325.4z"/>
		<path class="st0" d="M-25.9,342.5c-0.3-1.6-0.5-2.9-0.7-4.4c1.3-0.4,2.4-0.8,3.9-1.3c0.3,1.7,0.5,3.1,0.7,4.7
			C-23.3,341.8-24.4,342.1-25.9,342.5z"/>
		<path class="st0" d="M-22.1,349.8c0,1.6,0,3.1,0,5.5c-1.3-0.7-2.7-1.1-2.8-1.7C-25.3,351.7-25.5,349.6-22.1,349.8z"/>
	</g>
</g>
<g>
	<g>
		<path class="st0" d="M453.8,148c-69,0-138,0-207,0c0-44.8,0-89.5,0-134.3c69,0,138,0,207,0C453.8,58.5,453.8,103.3,453.8,148z
			 M368.1,65.5c-0.7,0.1-1.2,0.1-1.7,0.3c-19.9,6.6-39.8,13.1-59.7,19.8c-1.2,0.4-2.5,1.4-3,2.5c-3.1,7.2-2.6,14.4,0.4,21.4
			c1.3,3,3.4,4.2,6.9,3.4c22.3-4.9,44.6-9.6,66.9-14.5c0.3-0.1,0.5-0.4,0.8-0.7C372.4,88,368.2,77.6,368.1,65.5z M424.3,18
			c-12.8,5.3-23.9,12.8-25.9,27.8c-2.8,20.3-0.6,39.9,9.4,58.5c5.8,10.7,13.5,12,24.9,8.5c1-0.3,1.8-1.1,2-1.2
			c-2.6-2.2-5.6-4-7.5-6.5c-2.4-3.1-4.1-6.8-5.7-10.5c-5.5-13.1-7-27-6.6-41.1C415.4,41,417.1,28.8,424.3,18z M274.1,92
			c-0.4-0.1-0.8-0.3-1.3-0.4c1.1-4.5,1.9-9.2,3.6-13.5c1.2-3.1,4.2-3.2,6.3-0.5c1.5,1.9,2.8,4.2,3.5,6.5c1.4,4.3,2.2,8.7,3.4,13
			c0.2,0.8,1.1,1.4,1.6,2.1c0.5-0.8,1.4-1.7,1.4-2.5c-0.1-2.2-0.5-4.5-0.9-6.7c-1.7-8.6-3.8-17.1-8.9-24.4c-1.1-1.5-3.1-2.9-4.9-3.3
			c-2.5-0.4-4.5,1.3-5.4,3.8c-0.9,2.6-1.9,5.2-2.5,7.8c-2.7,11.3-2,22.6-0.5,33.9c1.3,10.1,3.4,20.2,8.8,29.2c1.5,2.5,3.3,6,6.6,5
			c2.3-0.7,3.8-3.8,5.6-5.9c0.4-0.4,0.5-1.1,0.6-1.7c1-6.6,1.9-13.3,2.8-20c0.1-0.5-0.3-1.1-0.4-1.6c-0.3-0.1-0.6-0.1-0.9-0.2
			c-0.4,1-0.9,2-1,3c-0.7,4.5-1.1,9.2-2.1,13.6c-0.4,1.7-2.2,4.4-3.3,4.4c-1.9-0.1-4.2-1.6-5.5-3.2c-4.3-5.5-7.9-24.2-6.5-31.6
			c1.1,9.1,1.8,18.1,5.1,26.5c0.4,0,0.9,0.1,1.3,0.1c0.7-3,1.5-5.9,2.2-8.9c-0.5,0.1-1.1,0.3-1.6,0.4c-1.1-1.4-3-2.7-3-4.1
			c-0.1-2.8,0.3-5.8,1.3-8.3c1.9-4.7-0.1-11.4-4.7-14.3C274.5,90.9,274.3,91.5,274.1,92z M270.2,64.9c-0.4-0.3-0.8-0.5-1.1-0.8
			c-2.5,1.3-5.4,2.1-7.3,3.9c-4.9,4.5-7.9,10.4-8.9,16.9c-2.8,18.7,1.2,36.2,9.9,52.7c1.3,2.4,3.5,4.6,5.7,6.3c1.3,1,3.4,1.5,5,1.3
			c3-0.3,5.9-1.4,8.3-2c-1.7-2.2-3.8-4.4-5.2-7c-4.8-8.5-6.8-17.9-7.9-27.5c-0.9-7.5-1.4-15.2-1.1-22.7
			C267.8,79,269.2,71.9,270.2,64.9z M448.2,79.6c0.1-0.4,0.4-1.5,0.3-2.6c-0.7-10.3-1-20.7-2.3-30.9c-1-7.6-3.2-15.2-8.1-21.5
			c-1.8-2.3-3.6-4.7-7-4.2c-3.4,0.6-4.7,3.3-5.4,5c3.1,3.6,6.3,6.3,8.1,9.7c2.4,4.6,4.6,9.6,5.5,14.6c1.9,10.9,3,21.9,4.4,32.9
			c-0.4-0.2-0.8-0.5-1.2-0.7C444.2,81.2,445.9,80.5,448.2,79.6z M446.9,98.5c-0.4-0.4-0.7-0.7-1.1-1.1c-0.9,1.4-1.7,2.8-2.7,4
			c-3.2,4.3-6.9,5-10.8,1.4c-2.7-2.5-5-5.7-6.5-9c-7.8-17.9-8.9-36.8-6-55.8c0.8-5.3,2.8-10.7,5.4-15.3c3.4-6,9.5-6.1,13.3-0.3
			c3.1,4.7,5.8,10,7.4,15.3c3.8,12.6,5.3,25.6,4.2,39.6c0.5-3.4,1-6,1.1-8.7c0.5-12.1-1.1-24-5.3-35.3c-1.7-4.6-4.2-9.1-7.3-12.9
			c-4.7-5.9-10.5-5.4-14.3,1.1c-2.6,4.5-4.7,9.4-5.8,14.4c-3.8,16.6-3.3,33.3,1.6,49.6c2.1,7,5.9,13.7,9.7,20.1
			c2.4,4.1,5.5,4.4,9.2,1.5C442.2,104.8,444.4,101.4,446.9,98.5z M289.5,101.2c-0.5-2.3-0.9-4.4-1.5-6.4c-1.4-4.5-2.5-9.1-4.4-13.4
			c-0.8-1.8-3-2.9-4.5-4.4c-1.2,1.9-2.5,3.8-3.6,5.8c-0.2,0.5,0.4,1.5,0.8,2.1c1.7,2.8,3.8,5.4,5.2,8.4c1.1,2.3,1.5,5,2.1,7.5
			c1.1,0.1,2.1,0.3,3.2,0.4c-3.5,8.3-3.6,9.1-1.5,12.3c2.3-0.7,4.7-1.5,6.6-2.1c0.3-3.8,0.6-7.2,0.9-10.7
			C292,100.8,291,101,289.5,101.2z M420.7,51c-1.2,13.1,1,25.4,5.1,38.5C430.5,77.9,427.6,57.2,420.7,51z M416,115.6
			c-2.6-2.8-6.3-5.8-8.7-9.7c-7.2-11.7-10.7-24.7-11.1-38.4c-0.3-8.7,0.3-17.3,0.6-26c-1.2,5.9-2.2,11.8-2.4,17.8
			c-0.5,17.5,2.6,34.3,12.1,49.4C409.1,112.6,412.2,115.7,416,115.6z M383.4,88.9c-4.7,0.7-6.9-0.6-8.7-4.9
			c-1.9-4.5-0.9-9.6,2.8-12.5c-2-2.6-4-5.1-6-7.7c-0.5,0.2-1,0.4-1.5,0.6c-0.1,1.8-0.5,3.6-0.3,5.3c0.9,8.9,4.2,17.1,8.7,24.8
			c0.4,0.6,0.9,1.2,1.5,1.7c1.9,1.8,3.2,1.2,3.6-1.2C383.7,93.1,383.4,91,383.4,88.9z M425.2,27.6c-0.3,0.5-0.6,0.9-1,1.4
			c5.8,2.9,8.5,8.3,10.6,13.9c3.8,9.9,5.4,20.2,5.5,30.8c0.1,9.8-0.3,19.4-7.4,27.5c1.3-0.2,2.7-0.5,3.2-1.3c1.3-2.2,2.6-4.6,3.3-7
			c3.7-13.3,2.9-26.8-0.5-39.9c-1.8-7.1-5.1-13.9-8.3-20.6C429.8,30.2,427.1,29.1,425.2,27.6z M290.9,114c-4.3,0-6.2,1.2-6.3,5.2
			c-0.1,2.9-1,5.9-2.1,8.6c-1.1,2.6,0,3.7,1.9,4.7c2.6,1.3,3.2-1,3.6-2.4C289.1,124.8,289.9,119.4,290.9,114z M255.6,72.8
			c-12.7,16.2-3.9,52.2,5.4,64.9C251.9,116.5,246,95.6,255.6,72.8z M389.6,85.5c-1.7-5.2-3.1-9.6-4.7-14.5c-1,0.7-3.4,1.4-3.8,2.7
			c-1.3,4.3-0.1,8.6,3.1,11.6C385.3,86.3,388,85.5,389.6,85.5z M392.8,67.4c-2.1,1.8-4.6,2.9-5,4.5c-0.9,4,0.5,7.9,3.3,11
			c0.5,0.6,1.7,1,2.4,0.8c0.5-0.2,1.1-1.5,1-2.2C394.1,77.3,393.5,73.1,392.8,67.4z M378.3,73.8c-2.8,0.7-3.9,4.6-2.4,9.2
			c1.5,4.3,3.2,5.3,6.2,4.1C380.9,82.7,379.6,78.4,378.3,73.8z M298.9,99.3c-4-0.1-6.4,5.4-4.3,11.4c1.3-0.4,2.6-0.8,3.3-0.9
			C298.2,105.8,298.5,102.6,298.9,99.3z M283.7,103.1c-4,0.9-5.8,7.2-2.7,12.4c0.7-1.3,1.6-2.2,1.7-3.2
			C283.2,109.4,283.4,106.3,283.7,103.1z M445.7,92.5c0.4-1.6,1-4,1.7-6.5c-2.1,0-3.6,0-5.2,0c-0.4,2.1-0.7,4.1-1.2,6.5
			C442.6,92.5,443.8,92.5,445.7,92.5z M437.1,101.1c3.7,1.3,5.2-0.4,6-3.4C439.3,95.6,438.3,98.4,437.1,101.1z"/>
		<path d="M368.1,65.5c0.2,12.1,4.3,22.5,10.7,32.3c-0.3,0.3-0.5,0.6-0.8,0.7c-22.3,4.8-44.6,9.6-66.9,14.5
			c-3.5,0.8-5.6-0.5-6.9-3.4c-3-7.1-3.5-14.3-0.4-21.4c0.5-1.1,1.8-2.1,3-2.5c19.9-6.7,39.8-13.2,59.7-19.8
			C366.8,65.6,367.3,65.6,368.1,65.5z M344.7,94.5c0.7,0.1,1.7,0.5,1.9,0.2c3.3-4.8,6.4-9.6,9.6-14.4c-0.2-0.2-0.5-0.3-0.7-0.5
			c-1,0.8-2,1.6-3,2.4c-1.1-0.2-2.3-0.7-3.3-0.4c-11.6,3.2-23.2,6.7-34.9,9.8c-3.7,1-4.3,2.7-3.4,5.8c1.1,4,3.5,5.8,6.7,4.9
			c7.6-1.9,15.2-3.8,22.8-5.8C341.9,96.2,343.2,95.2,344.7,94.5z M364.4,90.5c-1.8-3.8-3.4-7.2-5.2-11c-3.2,4.9-6.1,9.5-9.5,14.8
			C355.1,92.9,359.8,91.7,364.4,90.5z"/>
		<path d="M424.3,18c-7.2,10.8-9,23-9.3,35.4c-0.4,14,1.1,27.9,6.6,41.1c1.5,3.7,3.3,7.3,5.7,10.5c1.9,2.5,4.9,4.3,7.5,6.5
			c-0.2,0.1-1,0.9-2,1.2c-11.5,3.5-19.2,2.2-24.9-8.5c-10-18.5-12.1-38.2-9.4-58.5C400.5,30.8,411.5,23.3,424.3,18z M403.7,90.6
			c1.5,3.6,2.9,6.9,4.3,10.3c3.9-1.2,7.4-2.3,11.2-3.5c-1.1-3.3-2-6.3-3-9.6C412.1,88.7,408.3,89.6,403.7,90.6z M400.3,67.6
			c3.8-1.2,6.9-2,9.9-3.1c0.8-0.3,1.7-1.5,1.8-2.3c0.1-2.8-0.2-5.6-0.3-8.7c-4.1,1.3-7.9,2.5-11.8,3.8
			C399.9,60.7,400.1,63.8,400.3,67.6z M400.6,50.8c10.7-2.6,13.1-5.5,11.7-14.3C401,39.6,400.4,40.3,400.6,50.8z M403.3,83.9
			c3.9-1,7.3-1.8,10.8-2.7c-0.6-3.1-1.2-5.7-1.8-8.6c-3.7,1-7.2,1.9-10.8,2.8C402.1,78.2,402.6,80.7,403.3,83.9z M427.5,110.7
			c-4.6-7.5-6-7.8-13.7-3.1C417,113.6,421.8,113.4,427.5,110.7z M415.4,24.6c-3.3,2.6-6.2,4.8-9.9,7.6
			C412.5,32.2,414.2,30.8,415.4,24.6z"/>
		<path d="M274.1,92c0.2-0.5,0.4-1.1,0.6-1.6c4.6,2.8,6.6,9.6,4.7,14.3c-1,2.6-1.4,5.6-1.3,8.3c0.1,1.4,2,2.8,3,4.1
			c0.5-0.1,1.1-0.3,1.6-0.4c-0.7,3-1.5,5.9-2.2,8.9c-0.4,0-0.9-0.1-1.3-0.1c-3.2-8.4-4-17.4-5.1-26.5c-1.4,7.4,2.2,26.1,6.5,31.6
			c1.2,1.6,3.6,3,5.5,3.2c1,0.1,2.9-2.7,3.3-4.4c1-4.5,1.4-9.1,2.1-13.6c0.2-1,0.7-2,1-3c0.3,0.1,0.6,0.1,0.9,0.2
			c0.2,0.5,0.5,1.1,0.4,1.6c-0.9,6.7-1.8,13.3-2.8,20c-0.1,0.6-0.3,1.3-0.6,1.7c-1.8,2.1-3.3,5.2-5.6,5.9c-3.3,1-5.1-2.4-6.6-5
			c-5.4-9-7.5-19-8.8-29.2C268,96.6,267.3,85.2,270,74c0.6-2.6,1.6-5.2,2.5-7.8c0.9-2.5,2.9-4.2,5.4-3.8c1.8,0.3,3.8,1.7,4.9,3.3
			c5.1,7.3,7.3,15.8,8.9,24.4c0.4,2.2,0.8,4.4,0.9,6.7c0,0.8-0.9,1.7-1.4,2.5c-0.6-0.7-1.4-1.3-1.6-2.1c-1.2-4.3-2.1-8.7-3.4-13
			c-0.8-2.3-2-4.6-3.5-6.5c-2.1-2.7-5-2.5-6.3,0.5c-1.7,4.3-2.4,9-3.6,13.5C273.2,91.8,273.6,91.9,274.1,92z"/>
		<path d="M270.2,64.9c-0.9,7-2.4,14-2.7,21.1c-0.3,7.6,0.2,15.2,1.1,22.7c1.1,9.5,3.1,19,7.9,27.5c1.4,2.6,3.5,4.8,5.2,7
			c-2.5,0.6-5.4,1.6-8.3,2c-1.6,0.2-3.8-0.3-5-1.3c-2.2-1.8-4.4-3.9-5.7-6.3c-8.7-16.5-12.7-34-9.9-52.7c1-6.5,4-12.4,8.9-16.9
			c2-1.8,4.9-2.6,7.3-3.9C269.4,64.4,269.8,64.7,270.2,64.9z M254.5,90.7c0,3.5,0,6.7,0,10.1c3-0.6,5.8-1.2,8.9-1.8
			c-0.2-3.2-0.4-6.2-0.7-9.4C259.7,90,257.3,90.3,254.5,90.7z M265.2,116.4c-0.6-3.5-1.1-6.5-1.7-9.9c-3,0.8-5.5,1.4-8.2,2.1
			c0.6,3.2,1.2,6.2,1.8,9.4C259.9,117.5,262.3,117,265.2,116.4z M265.8,123.6c-2.3,0.7-4.4,1.3-6.7,2c1.1,2.7,2,5,3,7.3
			c2.4-0.6,4.5-1.1,6.8-1.7C267.8,128.5,266.9,126.2,265.8,123.6z M256,82.3c7.7-1,7.7-1,8.2-8.3C257.8,74.6,257.7,74.7,256,82.3z
			 M267.8,140.2c1.5,4,4.3,3.7,7.4,2.3C272.6,137.6,272.6,137.6,267.8,140.2z M265.7,102.5c0.1,0,0.2,0,0.3,0c0-6.9,0-13.8,0-20.8
			c-0.1,0-0.2,0-0.3,0C265.7,88.7,265.7,95.6,265.7,102.5z"/>
		<path d="M448.2,79.6c-2.2,0.9-4,1.6-5.7,2.4c0.4,0.2,0.8,0.5,1.2,0.7c-1.4-11-2.4-22-4.4-32.9c-0.9-5.1-3.1-10.1-5.5-14.6
			c-1.8-3.4-5-6.1-8.1-9.7c0.6-1.7,2-4.4,5.4-5c3.4-0.6,5.2,1.8,7,4.2c4.8,6.4,7.1,13.9,8.1,21.5c1.3,10.2,1.6,20.6,2.3,30.9
			C448.6,78.1,448.2,79.2,448.2,79.6z M433.4,31.3c1.4,2.3,2.7,4.3,3.9,6.4c1.5-0.8,2.6-1.3,3.9-2c-1-2.2-1.9-4.3-2.9-6.6
			C436.6,30,435.1,30.6,433.4,31.3z M441.3,49.5c1.4-0.6,2.6-1.1,3.9-1.6c-0.3-1.6-0.6-3-1-4.7c-1.7,0.6-3.1,1-4.5,1.5
			C440.4,46.4,440.8,47.8,441.3,49.5z M447,60.5c-0.3-1.8-0.5-3.2-0.8-4.7c-1.5,0.4-2.5,0.7-3.8,1.1c0.2,1.6,0.5,3,0.7,4.6
			C444.6,61.2,445.6,60.9,447,60.5z M446.9,68.8c-3.1-0.4-3.3,1.6-2.8,3.5c0.2,0.7,1.5,1.2,2.8,2.1
			C446.9,71.8,446.9,70.3,446.9,68.8z"/>
		<path d="M446.9,98.5c-2.6,2.9-4.8,6.3-7.8,8.6c-3.8,2.9-6.8,2.6-9.2-1.5c-3.8-6.4-7.6-13-9.7-20.1c-4.8-16.3-5.4-33-1.6-49.6
			c1.2-5,3.3-10,5.8-14.4c3.8-6.5,9.5-7,14.3-1.1c3.1,3.8,5.6,8.3,7.3,12.9c4.2,11.3,5.8,23.2,5.3,35.3c-0.1,2.6-0.7,5.2-1.1,8.7
			c1-14-0.4-27-4.2-39.6c-1.6-5.4-4.3-10.7-7.4-15.3c-3.8-5.7-9.9-5.6-13.3,0.3c-2.6,4.7-4.6,10-5.4,15.3c-2.9,19.1-1.8,37.9,6,55.8
			c1.4,3.3,3.8,6.5,6.5,9c3.9,3.6,7.6,2.9,10.8-1.4c1-1.3,1.8-2.7,2.7-4C446.2,97.8,446.6,98.2,446.9,98.5z"/>
		<path d="M289.5,101.2c1.5-0.2,2.4-0.4,3.5-0.6c-0.3,3.5-0.6,6.9-0.9,10.7c-2,0.6-4.3,1.4-6.6,2.1c-2.1-3.2-2-4,1.5-12.3
			c-1.1-0.1-2.1-0.3-3.2-0.4c-0.7-2.5-1-5.2-2.1-7.5c-1.4-2.9-3.5-5.6-5.2-8.4c-0.4-0.6-1-1.7-0.8-2.1c1-2,2.4-3.9,3.6-5.8
			c1.5,1.4,3.8,2.6,4.5,4.4c1.8,4.3,3,8.9,4.4,13.4C288.6,96.9,289,98.9,289.5,101.2z"/>
		<path d="M420.7,51c6.8,6.2,9.8,26.9,5.1,38.5C421.8,76.4,419.5,64.1,420.7,51z"/>
		<path d="M416,115.6c-3.8,0.1-6.9-2.9-9.4-6.9c-9.5-15.1-12.6-31.8-12.1-49.4c0.2-6,1.1-12,2.4-17.8c-0.2,8.7-0.8,17.4-0.6,26
			c0.4,13.7,3.9,26.7,11.1,38.4C409.7,109.8,413.4,112.8,416,115.6z"/>
		<path d="M383.4,88.9c0,2.1,0.2,4.2-0.1,6.3c-0.3,2.4-1.7,2.9-3.6,1.2c-0.5-0.5-1.1-1.1-1.5-1.7c-4.5-7.7-7.8-15.8-8.7-24.8
			c-0.2-1.8,0.2-3.6,0.3-5.3c0.5-0.2,1-0.4,1.5-0.6c2,2.6,4,5.1,6,7.7c-3.7,2.9-4.7,7.9-2.8,12.5C376.6,88.2,378.8,89.6,383.4,88.9z
			"/>
		<path d="M425.2,27.6c1.9,1.5,4.6,2.7,5.5,4.6c3.2,6.7,6.5,13.5,8.3,20.6c3.3,13.2,4.2,26.6,0.5,39.9c-0.7,2.5-2,4.8-3.3,7
			c-0.5,0.8-1.9,1.1-3.2,1.3c7.1-8.1,7.5-17.8,7.4-27.5c-0.1-10.6-1.7-20.9-5.5-30.8c-2.2-5.6-4.8-10.9-10.6-13.9
			C424.6,28.5,424.9,28,425.2,27.6z"/>
		<path d="M290.9,114c-1,5.5-1.8,10.8-3,16.1c-0.3,1.4-1,3.7-3.6,2.4c-2-1-3-2.1-1.9-4.7c1.1-2.7,2.1-5.7,2.1-8.6
			C284.7,115.2,286.6,114,290.9,114z"/>
		<path d="M255.6,72.8c-9.6,22.7-3.7,43.6,5.4,64.9C251.7,125.1,242.9,89.1,255.6,72.8z"/>
		<path d="M389.6,85.5c-1.6,0-4.4,0.8-5.4-0.2c-3.2-3.1-4.5-7.3-3.1-11.6c0.4-1.3,2.8-2.1,3.8-2.7C386.5,75.9,387.9,80.3,389.6,85.5
			z"/>
		<path d="M392.8,67.4c0.7,5.7,1.3,9.9,1.7,14c0.1,0.7-0.5,2.1-1,2.2c-0.7,0.2-1.9-0.2-2.4-0.8c-2.8-3.1-4.3-6.9-3.3-11
			C388.2,70.3,390.7,69.3,392.8,67.4z"/>
		<path d="M378.3,73.8c1.3,4.6,2.6,8.9,3.8,13.3c-2.9,1.3-4.7,0.3-6.2-4.1C374.4,78.4,375.6,74.5,378.3,73.8z"/>
		<path d="M298.9,99.3c-0.3,3.2-0.7,6.5-1.1,10.4c-0.6,0.2-1.9,0.6-3.3,0.9C292.5,104.7,294.8,99.2,298.9,99.3z"/>
		<path d="M283.7,103.1c-0.3,3.2-0.5,6.3-0.9,9.3c-0.1,1-1,1.9-1.7,3.2C277.9,110.3,279.7,104,283.7,103.1z"/>
		<path d="M445.7,92.5c-1.9,0-3.1,0-4.7,0c0.4-2.3,0.8-4.4,1.2-6.5c1.7,0,3.1,0,5.2,0C446.7,88.5,446.1,90.8,445.7,92.5z"/>
		<path d="M437.1,101.1c1.2-2.7,2.2-5.5,6-3.4C442.3,100.7,440.7,102.4,437.1,101.1z"/>
		<path class="st0" d="M344.7,94.5c-1.4,0.7-2.8,1.7-4.3,2c-7.6,2-15.2,3.9-22.8,5.8c-3.3,0.8-5.6-0.9-6.7-4.9
			c-0.9-3.1-0.3-4.9,3.4-5.8c11.7-3,23.3-6.6,34.9-9.8c1-0.3,2.2,0.3,3.3,0.4C349.8,86.3,347.3,90.4,344.7,94.5z"/>
		<path class="st0" d="M364.4,90.5c-4.6,1.2-9.2,2.3-14.7,3.7c3.4-5.3,6.3-9.9,9.5-14.8C361,83.3,362.6,86.7,364.4,90.5z"/>
		<path class="st0" d="M344.7,94.5c2.6-4.1,5.2-8.2,7.8-12.3c1-0.8,2-1.6,3-2.4c0.2,0.2,0.5,0.3,0.7,0.5c-3.2,4.8-6.3,9.7-9.6,14.4
			C346.4,95,345.3,94.6,344.7,94.5z"/>
		<path class="st0" d="M403.7,90.6c4.6-1,8.3-1.8,12.5-2.8c1,3.2,2,6.2,3,9.6c-3.7,1.2-7.2,2.3-11.2,3.5
			C406.6,97.4,405.2,94.2,403.7,90.6z"/>
		<path class="st0" d="M400.3,67.6c-0.2-3.7-0.3-6.9-0.5-10.3c4-1.3,7.7-2.5,11.8-3.8c0.1,3.1,0.4,5.9,0.3,8.7c0,0.8-1,2-1.8,2.3
			C407.1,65.6,404,66.4,400.3,67.6z"/>
		<path class="st0" d="M400.6,50.8c-0.2-10.4,0.3-11.1,11.7-14.3C413.7,45.3,411.3,48.2,400.6,50.8z"/>
		<path class="st0" d="M403.3,83.9c-0.7-3.2-1.2-5.7-1.8-8.5c3.6-0.9,7.1-1.8,10.8-2.8c0.6,2.9,1.1,5.5,1.8,8.6
			C410.5,82.1,407.1,82.9,403.3,83.9z"/>
		<path class="st0" d="M427.5,110.7c-5.7,2.8-10.5,2.9-13.7-3.1C421.6,102.8,422.9,103.1,427.5,110.7z"/>
		<path class="st0" d="M415.4,24.6c-1.2,6.2-2.8,7.6-9.9,7.6C409.1,29.4,412,27.2,415.4,24.6z"/>
		<path class="st0" d="M254.5,90.7c2.8-0.4,5.2-0.7,8.2-1.1c0.2,3.2,0.4,6.2,0.7,9.4c-3.1,0.6-5.9,1.2-8.9,1.8
			C254.5,97.4,254.5,94.2,254.5,90.7z"/>
		<path class="st0" d="M265.2,116.4c-2.9,0.6-5.3,1.1-8.1,1.7c-0.6-3.2-1.2-6.2-1.8-9.4c2.8-0.7,5.3-1.4,8.2-2.1
			C264,109.9,264.6,112.9,265.2,116.4z"/>
		<path class="st0" d="M265.8,123.6c1,2.6,2,4.9,3.1,7.6c-2.4,0.6-4.5,1.1-6.8,1.7c-1-2.4-1.9-4.6-3-7.3
			C261.4,124.9,263.5,124.3,265.8,123.6z"/>
		<path class="st0" d="M256,82.3c1.7-7.6,1.8-7.7,8.2-8.3C263.7,81.4,263.7,81.4,256,82.3z"/>
		<path class="st0" d="M267.8,140.2c4.7-2.5,4.8-2.5,7.4,2.3C272.1,143.8,269.3,144.2,267.8,140.2z"/>
		<path class="st0" d="M265.7,102.5c0-6.9,0-13.8,0-20.8c0.1,0,0.2,0,0.3,0c0,6.9,0,13.8,0,20.8C266,102.5,265.8,102.5,265.7,102.5z
			"/>
		<path class="st0" d="M433.4,31.3c1.7-0.7,3.1-1.4,5-2.2c1,2.3,1.9,4.4,2.9,6.6c-1.3,0.7-2.4,1.2-3.9,2
			C436.1,35.7,434.8,33.6,433.4,31.3z"/>
		<path class="st0" d="M441.3,49.5c-0.5-1.6-1-3-1.5-4.8c1.4-0.5,2.7-0.9,4.5-1.5c0.4,1.7,0.6,3.1,1,4.7
			C444,48.4,442.8,48.9,441.3,49.5z"/>
		<path class="st0" d="M447,60.5c-1.5,0.4-2.5,0.6-3.9,1c-0.2-1.6-0.5-3-0.7-4.6c1.3-0.4,2.4-0.7,3.8-1.1
			C446.5,57.3,446.8,58.7,447,60.5z"/>
		<path class="st0" d="M446.9,68.8c0,1.5,0,2.9,0,5.6c-1.3-0.9-2.7-1.4-2.8-2.1C443.6,70.4,443.8,68.4,446.9,68.8z"/>
	</g>
</g>
</svg>
