<?xml version="1.0" encoding="utf-8"?>
<!-- Generator: Adobe Illustrator 21.1.0, SVG Export Plug-In . SVG Version: 6.00 Build 0)  -->
<svg version="1.1" id="Layer_1" xmlns="http://www.w3.org/2000/svg" xmlns:xlink="http://www.w3.org/1999/xlink" x="0px" y="0px"
	 viewBox="0 0 500 500" style="enable-background:new 0 0 500 500;" xml:space="preserve">
<style type="text/css">
	.st0{fill:#FFFFFF;}
</style>
<g>
	<g>
		<path class="st0" d="M76.2,285.3c0-70,0-140.1,0-210.1c108,0,216,0,324,0c0,70,0,140.1,0,210.1
			C292.2,285.3,184.2,285.3,76.2,285.3z M127.8,273.6c-2.7-3.9-6.1-7.5-7.9-11.8c-10.5-25.8-13.4-52.8-11.1-80.4
			c0.4-5.2,1.8-10.4,2.5-15.6c0.1-0.8-0.7-1.6-1.6-3.6c0.5-1.3,1.4-4.2,2.4-7.1c-0.4-0.5-0.7-1-1.1-1.5c-4.3,2.6-9.4,4.4-12.9,7.8
			c-7.9,7.7-12.4,17.7-13.6,28.5c-3,27.7,2.8,54,15.7,78.6c6.3,12.1,12.4,14.7,23.9,11.9c2.3-0.6,4.3-1.8,6.4-2.6
			c-1.1-1.6-2-3-2.9-4.4c7.7,4.4,11,4.5,14-0.5c7.7-13.1,8-27.7,7.2-42.5c-1.8,1.6-2.8,3.6-3.1,5.6c-1.2,7.1-1.5,14.4-3.3,21.4
			c-2,7.6-6.2,8.4-11.8,3c-1.2-1.2-2.3-2.7-3-4.3c-9.7-23.3-12.4-47.5-8.2-72.3c0.8-4.5,1.4-10.3,7.1-10.9c6.1-0.7,8,5,9.6,9.5
			c2.7,7.7,4.5,15.7,6.9,23.6c0.4,1.2,1.6,2.2,2.5,3.3c0.8-1.3,2.4-2.6,2.3-3.8c-0.1-3.5-0.7-7-1.4-10.4c-2.7-13.5-6-26.7-13.7-38.4
			c-5.1-7.7-11.9-7.4-16.4,0.5c-1,1.7-2,3.5-2.3,5.4c-1.6,12.4-4.4,24.7-4.3,37.1C110,225.4,114.3,250.8,127.8,273.6z M355.2,81.2
			c-22.2,7.6-39.1,23.9-41.6,42.3c-4.5,32.8-1.3,64.5,15.1,94.3c8.6,15.6,19.6,18,38.4,12.5c1.7-0.5,3.1-1.8,5.3-3.1
			c-9.9-1.5-14.1-8.3-17.8-15.1c-13.1-24.2-15.8-50.5-14.9-77.3C340.4,116.1,343.4,97.9,355.2,81.2z M265.9,156
			c-32.5,10.7-64.3,21.1-96.1,31.7c-2.1,0.7-4.3,2.9-5.1,5c-4.2,10.9-3.1,21.9,1,32.6c1.7,4.5,5.1,6.8,10.7,5.5
			c16.6-3.7,33.2-6.8,49.8-10.5c18.8-4.1,37.6-8.5,56.8-12.9C272.4,191.8,266.5,175.2,265.9,156z M370.4,214.8
			c5.2,1.5,8.9,0.3,11-3.4c2.7-4.7,5.5-9.6,6.9-14.8c6.3-23.5,5.3-47.2,0.6-70.8c-2.5-12.3-5.7-24.4-13.5-34.7
			c-2.7-3.6-6.2-7.1-11.3-5.7c-5,1.3-7.5,5.1-8.7,9.9c8.2,4,12.1,8.6,16.6,19c9.6,22.7,12.2,46.4,10.2,70.7
			C381.4,195.6,379.8,206.5,370.4,214.8z M387.8,205.8c-1,1.6-2,3.1-3,4.7c-5.9,9-13.4,9.9-20.5,1.7c-3.5-4-6.6-8.8-8.5-13.8
			c-10.4-27.2-13.4-55.4-8.5-84.1c1.5-9,5.2-17.9,9.6-26c4.1-7.6,13.3-7.5,18.5-0.6c4,5.4,7.8,11.3,10.2,17.6
			c5.6,14.7,8.5,30,8.9,45.8c0.2,8.7,0,17.3,0,26c3.6-21.6,2.7-43-4-63.7c-3.1-9.7-7.8-19.2-13.6-27.6c-6.6-9.5-16.2-8.7-22.3,1.1
			c-3.6,5.7-6.6,12.1-8.2,18.6c-7.6,29.7-6.3,59.4,3.1,88.4c3,9.1,8.5,17.5,13.7,25.6c1.6,2.4,6.5,4.5,9.3,3.9
			C381.6,221.7,385.7,214.4,387.8,205.8z M356.2,193.9c8.2-16.1,3-51.3-8.7-61.6C346.7,153.4,349.6,173.4,356.2,193.9z M143.5,209.7
			c-4-11.2-7.6-21.6-11.6-31.8c-0.6-1.6-4.7-3.7-5.2-3.3c-2.1,1.7-3.8,4.2-4.8,6.7c-0.6,1.5-0.2,3.9,0.7,5.4
			c2.3,4.2,5.5,7.9,7.5,12.2c1.9,4.1,2.6,8.8,3.9,13.5C136.8,211.7,139.2,211,143.5,209.7z M341.7,234.6
			c-18.9-13.6-24.7-33.7-29-54.3c-4.3-20.6-4.1-41.4-1.2-62.3c-1.3,3-2.6,6.1-2.9,9.3c-0.7,6.4-1.2,12.8-1.3,19.3
			c-0.7,27.5,4,53.7,19,77.3C329.8,229.5,333.9,234.4,341.7,234.6z M119.3,194c-1,20.1,1.4,38.4,7.4,56.1c0.7,0.1,1.4,0.1,2.1,0.2
			c1.1-4.6,2.2-9.3,3.3-13.9c-0.8,0.2-1.6,0.4-2.3,0.6c-1.5-1.7-4-3.3-4.2-5.1c-0.4-4.1-0.4-8.6,0.9-12.5
			C129.7,209.7,128.2,202.3,119.3,194z M271.1,153.1c-6.7,11.7,6.3,49.2,18.4,53.5c0.2-4.7,0.4-9.1,0.7-13.8
			c-7.5,2.1-9.9-0.1-13.5-7.3c-3.7-7.3-2.1-15.2,3.9-20C277.5,161.6,274.5,157.6,271.1,153.1z M367.1,211.7c0.4,0.5,0.7,1,1.1,1.5
			c1.8-1.4,4.1-2.5,5.3-4.3c1.9-3.1,3.5-6.6,4.4-10.1c6.8-27.9,3.5-55.1-6.7-81.6c-2.2-5.7-5.9-10.9-9.5-15.9c-1.5-2-4.6-2.7-7-4
			c-0.3,0.5-0.6,1.1-1,1.6c8.5,4.2,12.6,11.9,16,20c6.8,16.1,9.5,33,9.6,50.3C379.3,184.5,378.6,199.7,367.1,211.7z M144.9,232.2
			c-9,0.8-8.8,0.8-9.9,8.4c-0.6,4.4-1.4,9-3.2,13c-1.9,4.2-0.6,6.2,2.9,7.8c4.2,1.9,5.4-1.7,6-4.3
			C142.4,248.9,143.5,240.7,144.9,232.2z M148.9,211.3c-13.7,0.2-16.7,11.7-13,20.1c3.8-1.1,7.7-2.2,11.1-3.2
			C147.6,222.3,148.2,217,148.9,211.3z M89.7,168.5c-0.5-0.2-1-0.4-1.5-0.6c-2.5,7.2-5.9,14.1-7.3,21.5c-3.4,18.7-0.2,37,5.4,54.9
			c2.7,8.7,6.9,17,10.4,25.5C84.2,236.6,74.4,203.5,89.7,168.5z M299.3,187.6c-2.5-8.2-4.6-15.3-7-23.3c-1.9,1.6-5.7,3.1-6.3,5.4
			c-1.6,6.8,0.5,13.4,5.6,18.1C293.2,189.1,297.2,187.7,299.3,187.6z M304.7,161.2c-8.7,1.9-9.6,2.8-7.8,11.3
			c0.8,3.8,2.9,7.5,4.9,11c0.6,1,2.8,1.5,4.3,1.4c0.6,0,1.5-2.4,1.4-3.7C306.6,174.5,305.6,167.9,304.7,161.2z M281.4,168.6
			c-1,1.1-3,2.3-3.5,3.9c-2,6.4-0.8,12.5,4.1,17.2c1.4,1.4,4.6,1,6.5,1.3C286.1,183.3,283.9,176.4,281.4,168.6z M158.5,208.4
			c-7.6,0.8-11.8,10.1-7.8,18.7c2.2-0.7,4.5-1.4,5.6-1.7C157.1,218.8,157.8,213.6,158.5,208.4z M133.6,215.2
			c-6.5,1.4-9.2,10.4-4.7,19.6c1.4-2.1,3-3.6,3.3-5.2C133,224.9,133.2,220.2,133.6,215.2z"/>
		<path d="M355.2,81.2c-11.9,16.7-14.8,34.9-15.5,53.6c-0.9,26.8,1.8,53.1,14.9,77.3c3.7,6.9,7.9,13.6,17.8,15.1
			c-2.2,1.3-3.6,2.6-5.3,3.1c-18.8,5.5-29.8,3.1-38.4-12.5c-16.4-29.8-19.6-61.5-15.1-94.3C316.1,105.1,333,88.8,355.2,81.2z"/>
		<path d="M265.9,156c0.6,19.2,6.5,35.8,17.1,51.4c-19.3,4.4-38,8.8-56.8,12.9c-16.6,3.6-33.3,6.7-49.8,10.5c-5.6,1.3-9-1-10.7-5.5
			c-4.1-10.7-5.2-21.7-1-32.6c0.8-2,3.1-4.3,5.1-5C201.6,177.1,233.5,166.7,265.9,156z M251.8,177.5c-23.3,6.6-46.7,13.5-70.2,19.8
			c-5.9,1.6-6.5,4.6-5.4,9.3c1.5,6,5.4,8.9,10.1,7.7c15.9-4,31.8-8,47.7-12c8.8-2.2,17.6-4.4,26-6.6
			C257.2,189.3,254.6,183.6,251.8,177.5z"/>
		<path d="M127.6,273.4c0.9,1.4,1.9,2.8,2.9,4.4c-2,0.8-4.1,2.1-6.4,2.6c-11.5,2.8-17.6,0.2-23.9-11.9
			c-12.9-24.6-18.7-50.8-15.7-78.6c1.2-10.9,5.7-20.8,13.6-28.5c3.5-3.4,8.5-5.3,12.9-7.8c0.4,0.5,0.7,1,1.1,1.5
			c-1,2.9-2,5.8-2.4,7.1c0.9,2,1.7,2.9,1.6,3.6c-0.7,5.2-2,10.3-2.5,15.6c-2.4,27.6,0.6,54.6,11.1,80.4c1.7,4.3,5.2,7.9,7.9,11.8
			L127.6,273.4z"/>
		<path d="M127.8,273.6c-13.5-22.9-17.8-48.2-17.9-74.2c-0.1-12.4,2.6-24.8,4.3-37.1c0.2-1.9,1.3-3.7,2.3-5.4
			c4.5-7.9,11.3-8.1,16.4-0.5c7.7,11.6,11,24.9,13.7,38.4c0.7,3.4,1.3,6.9,1.4,10.4c0,1.2-1.5,2.5-2.3,3.8c-0.9-1.1-2.1-2-2.5-3.3
			c-2.4-7.8-4.2-15.8-6.9-23.6c-1.6-4.4-3.5-10.2-9.6-9.5c-5.8,0.6-6.4,6.4-7.1,10.9c-4.2,24.9-1.5,49,8.2,72.3
			c0.7,1.6,1.7,3.1,3,4.3c5.6,5.4,9.8,4.6,11.8-3c1.8-6.9,2.2-14.2,3.3-21.4c0.3-2,1.3-4,3.1-5.6c0.8,14.8,0.5,29.4-7.2,42.5
			c-3,5-6.3,4.9-14,0.5C127.6,273.4,127.8,273.6,127.8,273.6z"/>
		<path d="M370.4,214.8c9.4-8.3,11-19.2,11.8-29.8c1.9-24.2-0.6-48-10.2-70.7c-4.4-10.4-8.4-15-16.6-19c1.2-4.8,3.8-8.7,8.7-9.9
			c5.2-1.3,8.6,2.1,11.3,5.7c7.7,10.3,11,22.4,13.5,34.7c4.7,23.6,5.7,47.3-0.6,70.8c-1.4,5.2-4.2,10.1-6.9,14.8
			C379.3,215.1,375.6,216.3,370.4,214.8z"/>
		<path d="M387.8,205.8c-2.1,8.6-6.1,15.9-15.3,17.7c-2.8,0.6-7.7-1.5-9.3-3.9c-5.2-8.1-10.8-16.5-13.7-25.6
			c-9.4-29-10.7-58.7-3.1-88.4c1.7-6.5,4.7-12.9,8.2-18.6c6.1-9.8,15.8-10.6,22.3-1.1c5.8,8.4,10.4,17.9,13.6,27.6
			c6.7,20.7,7.6,42.1,4,63.7c0-8.7,0.2-17.3,0-26c-0.4-15.7-3.3-31.1-8.9-45.8c-2.4-6.3-6.2-12.2-10.2-17.6c-5.2-7-14.4-7-18.5,0.6
			c-4.4,8.1-8,17-9.6,26c-4.9,28.7-1.9,56.9,8.5,84.1c1.9,5,5,9.8,8.5,13.8c7.2,8.2,14.7,7.3,20.5-1.7
			C385.8,208.9,386.8,207.4,387.8,205.8z"/>
		<path d="M356.2,193.9c-6.6-20.5-9.4-40.5-8.7-61.6C359.2,142.6,364.3,177.8,356.2,193.9z"/>
		<path d="M143.5,209.7c-4.3,1.3-6.6,2-9.5,2.8c-1.3-4.7-2-9.4-3.9-13.5c-1.9-4.3-5.2-8-7.5-12.2c-0.8-1.5-1.3-3.9-0.7-5.4
			c1-2.5,2.7-5,4.8-6.7c0.5-0.4,4.5,1.6,5.2,3.3C135.9,188.1,139.5,198.6,143.5,209.7z"/>
		<path d="M341.7,234.6c-7.8-0.3-11.9-5.1-15.5-10.7c-15-23.6-19.7-49.8-19-77.3c0.2-6.4,0.6-12.9,1.3-19.3c0.4-3.2,1.6-6.3,2.9-9.3
			c-2.9,20.9-3.2,41.7,1.2,62.3C317.1,200.9,322.8,221.1,341.7,234.6z"/>
		<path d="M119.3,194c9,8.4,10.4,15.7,7.2,25.5c-1.3,3.9-1.3,8.3-0.9,12.5c0.2,1.8,2.7,3.4,4.2,5.1c0.8-0.2,1.6-0.4,2.3-0.6
			c-1.1,4.6-2.2,9.3-3.3,13.9c-0.7-0.1-1.4-0.1-2.1-0.2C120.7,232.3,118.3,214,119.3,194z"/>
		<path d="M271.1,153.1c3.4,4.5,6.4,8.5,9.4,12.5c-6,4.8-7.5,12.8-3.9,20c3.6,7.2,6,9.3,13.5,7.3c-0.2,4.7-0.4,9-0.7,13.8
			C277.3,202.3,264.4,164.9,271.1,153.1z"/>
		<path d="M367.1,211.7c11.5-12.1,12.2-27.2,12.1-42.5c-0.2-17.3-2.8-34.2-9.6-50.3c-3.4-8.1-7.4-15.8-16-20c0.3-0.5,0.6-1.1,1-1.6
			c2.4,1.3,5.6,2.1,7,4c3.6,5,7.3,10.2,9.5,15.9c10.2,26.5,13.5,53.7,6.7,81.6c-0.9,3.5-2.5,7-4.4,10.1c-1.1,1.8-3.5,2.9-5.3,4.3
			C367.9,212.8,367.5,212.3,367.1,211.7z"/>
		<path d="M144.9,232.2c-1.4,8.5-2.6,16.7-4.3,24.9c-0.5,2.6-1.7,6.2-6,4.3c-3.5-1.6-4.8-3.6-2.9-7.8c1.8-4,2.6-8.6,3.2-13
			C136.1,233,135.9,233,144.9,232.2z"/>
		<path d="M148.9,211.3c-0.6,5.7-1.2,11-1.9,17c-3.4,1-7.2,2.1-11.1,3.2C132.2,222.9,135.2,211.4,148.9,211.3z"/>
		<path d="M89.7,168.5c-15.3,35.1-5.5,68.1,7,101.3c-3.5-8.5-7.6-16.8-10.4-25.5c-5.6-17.9-8.9-36.2-5.4-54.9
			c1.4-7.4,4.8-14.4,7.3-21.5C88.7,168.1,89.2,168.3,89.7,168.5z"/>
		<path d="M299.3,187.6c-2.2,0.1-6.2,1.5-7.7,0.1c-5.1-4.7-7.2-11.3-5.6-18.1c0.5-2.3,4.3-3.8,6.3-5.4
			C294.8,172.4,296.9,179.4,299.3,187.6z"/>
		<path d="M304.7,161.2c0.9,6.7,2,13.4,2.7,20.1c0.1,1.2-0.8,3.6-1.4,3.7c-1.4,0.1-3.7-0.4-4.3-1.4c-2-3.5-4.1-7.1-4.9-11
			C295.1,164,296,163.1,304.7,161.2z"/>
		<path d="M281.4,168.6c2.5,7.8,4.6,14.6,7.1,22.4c-1.9-0.3-5,0-6.5-1.3c-4.9-4.6-6.1-10.7-4.1-17.2
			C278.5,170.9,280.4,169.7,281.4,168.6z"/>
		<path d="M158.5,208.4c-0.7,5.2-1.4,10.5-2.3,17c-1.1,0.3-3.4,1-5.6,1.7C146.6,218.5,150.9,209.2,158.5,208.4z"/>
		<path d="M133.6,215.2c-0.4,5-0.7,9.7-1.4,14.4c-0.3,1.6-1.9,3.1-3.3,5.2C124.4,225.6,127.2,216.6,133.6,215.2z"/>
		<path class="st0" d="M251.8,177.5c2.8,6.1,5.4,11.9,8.3,18.2c-8.4,2.1-17.2,4.4-26,6.6c-15.9,4-31.8,8.1-47.7,12
			c-4.8,1.2-8.6-1.8-10.1-7.7c-1.2-4.7-0.5-7.7,5.4-9.3C205.1,191,228.5,184.1,251.8,177.5z"/>
	</g>
</g>
</svg>
